<svg xmlns="http://www.w3.org/2000/svg" xmlns:xlink="http://www.w3.org/1999/xlink" id="Layer_1" x="0px" y="0px" viewBox="0 0 50 50" style="enable-background:new 0 0 50 50;" xml:space="preserve"><style type="text/css">	.st0{fill:#0038FF;}	.st1{fill:#1FE3A1;}</style><g>	<g>		<g>			<path class="st0" d="M40.7,2.5l-8.8,3.9c-0.1,0-0.3,0.2-0.4,0.5c0,0.1,0,0.1,0,0.1v9.3c-0.9-0.3-1.8-0.6-2.6-0.8    c-0.9-0.2-2-0.3-3.6-0.3c-1.9,0-3.8,0.4-5.7,1.1c-1.9,0.7-3.7,1.8-5.3,3.2c-1.6,1.4-2.9,3.2-3.9,5.4c-1,2.2-1.5,4.7-1.5,7.6    c0,1.7-0.1,4.1,1.1,6.9c0.2,0.4,0.3,0.7,0.4,0.9c0,0,0,0,0,0c0.7,1.8,3,6.3,8,8.1c1.6,0.6,3.1,0.7,4.3,0.7c2,0,3.7-0.4,5.3-1.2    c1.5-0.8,2.8-1.8,3.8-3l0.4,3.2h9V2.6c0-0.1,0-0.1,0-0.2C41,2.4,40.8,2.4,40.7,2.5z M31.7,33.7c0,0.9-0.1,1.8-0.3,2.6    c-0.2,0.9-0.6,1.6-1.1,2.2c-0.5,0.6-1.2,1.1-1.9,1.5c-0.8,0.4-1.7,0.6-2.8,0.6c-2.2,0-3.9-0.7-5-2.2c-1.1-1.5-1.7-3.3-1.7-5.6    c0-2.6,0.7-4.7,2-6.4c1.4-1.7,3.3-2.5,5.7-2.5c1.2,0,2.1,0.1,2.9,0.3c0.8,0.2,1.5,0.5,2.2,0.9V33.7z"></path>		</g>	</g>	<g>		<g>			<g>				<path class="st1" d="M48,47.9H45c-0.8,0-1.4-0.6-1.4-1.4v-3.7c0-0.8,0.6-1.4,1.4-1.4H48c0.8,0,1.4,0.6,1.4,1.4v3.7     C49.4,47.3,48.7,47.9,48,47.9z"></path>			</g>			<g>				<path class="st1" d="M4.9,47.9H2.1c-0.8,0-1.4-0.6-1.4-1.4v-3.6c0-0.8,0.6-1.4,1.4-1.4h2.8c0.8,0,1.4,0.6,1.4,1.4v3.6     C6.4,47.3,5.7,47.9,4.9,47.9z"></path>			</g>		</g>	</g></g></svg>